<svg xmlns="http://www.w3.org/2000/svg" width="141.704" height="92.635" viewBox="0 0 141.704 92.635">
  <g id="_256" data-name="256" transform="translate(48.494 -155.333)">
    <g id="Group_6" data-name="Group 6">
      <g id="Group_2" data-name="Group 2" transform="translate(-48.339 170.161)">
        <g id="Group_1" data-name="Group 1" opacity="0.7">
          <path id="Path_1" data-name="Path 1" d="M24.27,3.112C20.846.592,15.45.475,10.716,0c2.156.673,4.413,1.175,6.658,1.7A35.908,35.908,0,0,1,24.659,4.65c2.995,1.386,5.982,2.78,8.82,4.3-3.479.3-6.562-.834-9.652-1.673a32.938,32.938,0,0,0,5.914,2.359c.13.166.389.493.518.659-.791.179-1.589.354-2.394.534.4,1.4.525,2.892,1.719,4.125,1.31,1.395,2.763,2.74,3.888,4.206,2.033,1.009,4.045,2.04,5.948,3.152-2.4-.691-4.768-1.426-7.142-2.166q-1.678.417-3.37.843c.4,1.543.839,3.081,1.262,4.623q-2.445-.982-4.993-1.838c2.333,2.668,6.248,4.394,10.082,6.031-6.405-1.986-13.076-3.542-19.5-5.511,6.091,2.4,12.4,4.641,17.824,7.681-3.663-.242-6.548-1.83-9.707-2.9-2.995-1.049-5.866-2.238-8.82-3.341C20.13,28.125,25.771,29.9,31.112,32c.02.386.061,1.157.089,1.543-1.828-.552-3.656-1.1-5.416-1.744-4.9-1.879-10.382-2.955-15.45-4.61A56.685,56.685,0,0,0,.13,24.874a5.279,5.279,0,0,0,2.524,3.659c-.887.238-1.767.48-2.653.726q1.3.827,2.585,1.664c-.027.6-.055,1.2-.082,1.807,2.974,1.018,6.023,1.951,8.909,3.076a41.72,41.72,0,0,1,7.967,4.462c.4.09.8.184,1.194.278,1.61,1.821,4.632,2.5,7.49,3.121.525.6.778,1.43,1.889,1.695,3.117.906,6.132,1.955,9.127,3.018-.362.395-.737.785-1.105,1.179a39.687,39.687,0,0,1,8.452,3.157c4.529,1.9,8.574,4.233,12.79,6.408.314-.215.634-.43.948-.641,3.554,2.1,6.814,4.623,11.241,5.928-1.548-1.861-3.936-3.3-6.139-4.816,7.046,3.081,12.694,7.287,19.427,10.618,1.33.691,1.849-.605,2.271-1.179-1.739-1.233-3.445-2.484-5.211-3.7-.014-.426-.02-.848-.027-1.269-3.779-1.475-5.559-4.166-7.6-6.583.7.3,1.385.614,2.08.919.28-.211.839-.637,1.119-.852q1.729,1.123,3.54,2.175c-.559.278-1.112.556-1.671.839,1.978,1.081,3.963,2.157,5.819,3.327.027.48.061.964.089,1.448.5.327,1.01.655,1.514.987-.123-.717-.239-1.435-.368-2.152,1.057.731,2.128,1.457,3.226,2.157-.266-.856-.123-1.883-1.228-2.516-3.308-2.327-7.326-4.269-9.789-7.076a31.3,31.3,0,0,1,6.828,3.807c-.109-.7-.225-1.4-.341-2.1a40.515,40.515,0,0,0,7.92,4.762c-2.5-2.412-4.9-4.942-8.4-6.8.007-.439.014-.874.02-1.309A71.7,71.7,0,0,1,77.5,50.343c4.488,2.211,8.37,4.883,12.469,7.385a22.06,22.06,0,0,0,3.943,1.731c-1.064-.892-2.2-1.744-3.4-2.56.416-.287.825-.574,1.235-.856-1.01-.013-2.019-.031-3.029-.04A219.092,219.092,0,0,0,66.7,43.133c1.61.475,3.206.955,4.8,1.439-4.6-3.394-10.832-5.529-15.757-8.681,6.316,2.278,11.589,5.574,17.728,8.031,3.267,1.17,4.816,3.928,8.8,4.269-1.48-1.247-3.1-2.417-4.707-3.6,5.4,2.991,11.269,5.632,16.235,8.95a11.288,11.288,0,0,1,5.157,3.094q1.218-.316,2.435-.637c.014.422.027.843.034,1.265,1.139.525,2.271,1.054,3.4,1.578-.014.39-.02.785-.02,1.179.839.022,1.685.04,2.531.063a32.143,32.143,0,0,0,8.431,7.686q-1.074-1.446-2.2-2.879c1.562.812,3.138,1.614,4.741,2.39-2.483-2.094-5.334-3.982-7.776-6.094a14.5,14.5,0,0,0-1.085-3.2c2.387,1.713,4.98,3.3,7.415,4.977.689-.211,1.371-.422,2.053-.628a38.178,38.178,0,0,0,6.705,4.233c5.7,3.466,10.7,7.394,15.887,11.183a55.461,55.461,0,0,1-6.446-6.251c-1.651-2.112-4.993-3.26-7.033-5.166a37.145,37.145,0,0,1-4.236-4.43c.675-.148,1.842.166,2.005-.48a4.732,4.732,0,0,0-3.308-.8,14.547,14.547,0,0,1-3.9-2.148,10.619,10.619,0,0,1-1.671-3.255,71.636,71.636,0,0,1,9.618,3.134c-1.119-1.126-2.094-2.3-3.131-3.462a10.943,10.943,0,0,1-1.862-2.6c2.694,1.26,4.939,3.018,8.22,3.641-2.6-2.309-4.864-5.036-9.141-6.152.341-.3.682-.605,1.023-.906-2.224-1.776-4.659-3.426-7.149-5.04-2.838-1.8-4.864-4.058-7.585-5.928l2.094.269c-3.274-2.668-7.449-4.758-10.914-7.3-4.147-3.085-8.847-5.811-13.042-8.861-1.9-1.287-4.161-2.363-5.682-3.874-.716-.4-1.432-.807-2.156-1.2.866.013,2.606.045,3.472.058-2.108-.865-4.263-1.682-6.378-2.534,4.291,1.022,7.926,2.906,12.135,4.045-1.405-.865-2.872-1.677-4.325-2.5,1.248-.022,2.5-.045,3.745-.076-2.469-1.569-5.955-1.731-9.011-2.511,1.924.17,3.82.435,5.716.673-2.381-1.2-4.911-2.26-7.5-3.26,5.266,1.74,10.723,3.242,15.791,5.224-.109-.422-.225-.848-.341-1.273-.43,0-1.3-.018-1.726-.022-2.913-2.17-7.135-3.184-10.437-5.031.4-.238,1.18-.7,1.569-.937-4-1.157-7.626-2.78-11.357-4.264a34.08,34.08,0,0,0-6.576-2.39c-2.21-.417-4.5-.552-6.767-.771-.553.274-1.1.547-1.651.825q-1.606-.067-3.213-.139a45.309,45.309,0,0,1,6,2.466,25.567,25.567,0,0,0,5.607.623c.055.722.089,1.448.136,2.175-4.25-.785-8.226-2.2-12.66-2.525,4.55,2.789,10.744,3.87,15.839,6.13-7.231-1.56-13.595-4.542-21-5.807-.116-.211-.334-.632-.443-.843q2.21.128,4.42.224c-4.011-1.39-8.588-1.861-12.531-3.345C33.738.363,31.385.39,29.147.35c2.374.794,4.959,1.448,6.712,2.843l-3.2-.543A29.332,29.332,0,0,1,38.2,6.385c-4.591-.614-9.086-1.543-13.724-2.022-.048-.314-.15-.937-.2-1.251M50.921,46.855c2.838.973,5.935,1.717,8.363,3.13,1.842,1.233,3.4,2.632,5.334,3.812a66.5,66.5,0,0,0-6.6-2.516c-3.472-1.063-5.5-3.516-9.393-4.107a31.7,31.7,0,0,0-6.924-3.484C44.829,44.68,47.783,45.877,50.921,46.855Z" stroke="#001f34" stroke-width="0.128"/>
          <path id="Path_2" data-name="Path 2" d="M7.152,4.82A25.616,25.616,0,0,0,0,0,82.782,82.782,0,0,0,7.152,4.82Z" transform="translate(11.103 41.752)" fill="#0f0f0f" stroke="#001f34" stroke-width="0.128"/>
        </g>
      </g>
      <g id="Group_5" data-name="Group 5" transform="translate(-9.445 155.529)">
        <g id="Group_3" data-name="Group 3" transform="translate(0 7.13)">
          <path id="Path_3" data-name="Path 3" d="M49.243,11.641c-2.825-4.036-5-8.968-9.282-11.641a13.137,13.137,0,0,0-5.623,4.529,64.6,64.6,0,0,1-6.968-.215,57.408,57.408,0,0,1,4.762,8.439C30.965,13.9,30.212,15.8,28.4,16.044a27.289,27.289,0,0,1-9.336-.771,59.206,59.206,0,0,1-6.206-4.484C8.2,14.78,5.657,20.5,1.4,24.869c-3.049,5.5-.538,11.973,2.117,17.12,2.762,4.708,5.48,9.56,9.3,13.506.4-.592.8-1.184,1.193-1.785.4,2.708,1.112,5.695,3.363,7.489,3.211,2.825,6.4,5.785,10.269,7.7,1.9.511,3.91.251,5.847.35-3.049-4.2-5.82-8.762-6.359-14.044,2.888,4.072,4.439,9.013,7.847,12.753,1.973,1.04,4.233,1.444,6.2,2.538a41.465,41.465,0,0,1,7.758,6.35,25.8,25.8,0,0,0,4.045-9.829c.61-2.3-1.175-4.26-2.17-6.17-1.955-3.516-5.264-5.991-7.336-9.417-1.1-1.605-.018-3.534-.027-5.273a34.726,34.726,0,0,0-8.825-.8c-2.359-.448-4.072-2.332-6.027-3.578-2.161-2.027-5.811-.466-7.578-3.157-2.269-2.951-5.865-6.036-4.888-10.161a31.688,31.688,0,0,1,.933-4.107,36.455,36.455,0,0,1-3.749-3.695A24.61,24.61,0,0,0,27.656,25a39.161,39.161,0,0,0,10.663-7.112c-.1-1.605-.233-3.211-.368-4.816a11.541,11.541,0,0,1,1.83,4.762,55.567,55.567,0,0,1,7.6,1.1c2.565,1,5.04-1.166,6.466-3.085.9-4.484-1.327-8.888-3.56-12.645q-2.273.161-4.547.35c1.256,2.646,3.067,5.1,3.507,8.08M12.858,50.33c.036.789,1.148,3.112-.269,3.166a12.708,12.708,0,0,1-.96-7.489A42.394,42.394,0,0,1,12.858,50.33Z" transform="translate(0)" fill="#0f0f0f" stroke="#000" stroke-width="0.256"/>
          <path id="Path_4" data-name="Path 4" d="M9.775,13.82C5.776,9.731,3.444,4.475,0,0,1.166,7.614,5.677,14.654,4.942,22.519c2.942,3.865,6.215,8.2,11.157,9.462,8.914,2.69,18.564,4.215,27.73,1.847-2.834-2.484-5.937-5.139-9.731-5.838a39.231,39.231,0,0,1-9.058.126,40.976,40.976,0,0,1-10.331-7.677C12.574,18.591,11.928,15.668,9.775,13.82Z" transform="translate(1.621 42.617)" fill="#0f0f0f" stroke="#484546" stroke-width="0.256"/>
        </g>
        <g id="Group_4" data-name="Group 4" transform="translate(7.581)">
          <path id="Path_5" data-name="Path 5" d="M25.815,10.672C23.635,7.121,22.281,2.986,19.3,0c-1.91,2.583-2.242,5.829-2.242,8.941,2.439,2.179,5.749,1.632,8.753,1.731Zm-8.69.09C11.914,6.9,6.085,4.009.488.771A16.264,16.264,0,0,0,6.076,17.4a22.352,22.352,0,0,0,7.031,4.3c-.072-2.807-2.753-4.233-4.206-6.3-1.65-2.278-3.641-4.421-4.475-7.166a34.278,34.278,0,0,1,15.309,13.56,5.2,5.2,0,0,0,3.5-2.17c-1.65-3.166-3.076-6.735-6.107-8.852ZM42.585,28.151c-3.533-1.417-7.4-1.668-11.148-2.152a45.382,45.382,0,0,1-7.946,5.515c6.394.915,13.022,1.049,19.1,3.471-.915-.009-1.83-.009-2.744-.009-1.892,1.937-4.359,3.838-7.264,3.211-3-.018-4.278-2.951-5.919-4.942a14.741,14.741,0,0,0-3.8-1.39c-3.722,2.538-8.233.7-12.26.027-.422,2.386-1.2,4.888-.556,7.3A36.657,36.657,0,0,0,14.891,45.5c2.816,1.713,6.179.359,8.968-.735-.933.942-1.883,1.865-2.852,2.789a31.053,31.053,0,0,0,6.17,3.5c2.395-3.865,4.69-8.825,9.766-9.462-4.412,1.489-6.3,5.91-8.448,9.623,3.139.233,6.376.386,9.318,1.605,2.108.789,2.977,3.076,4.7,4.368,2.233.314,4.915.78,6.61-1.094a23.519,23.519,0,0,1-6.538-8.3c-1.543-.377-3.094-.753-4.628-1.193a16.016,16.016,0,0,1,8.2.8c-.529.17-1.587.5-2.117.673,1.937,3.695,4.977,8.466,9.928,6.906,2.233-.108,1.946-2.466,1.892-4.1.269-1.794-1.507-2.816-2.664-3.812-2.242.933-3.417-.843-4.493-2.466,2.834.538,5.991.3,7.506,3.345,1.3-1.892-.448-3.534-1.641-4.771-2.834-2.744-3.569-6.924-6.233-9.8a26.252,26.252,0,0,0-5.749-5.211Z" transform="translate(0 0)" fill="#bcbcbc" stroke="#000" stroke-width="0.256"/>
          <path id="Path_6" data-name="Path 6" d="M8.807,1.522A19.345,19.345,0,0,0,0,.007,5.456,5.456,0,0,0,8.807,1.522Z" transform="translate(28.837 33.813)" fill="#bdbab9" stroke="#bdbab9" stroke-width="0.256"/>
        </g>
      </g>
    </g>
  </g>
</svg>
